<?xml version="1.0" encoding="utf-8"?>
<!-- Generator: Adobe Illustrator 21.0.0, SVG Export Plug-In . SVG Version: 6.00 Build 0)  -->
<svg version="1.1" xmlns="http://www.w3.org/2000/svg" xmlns:xlink="http://www.w3.org/1999/xlink" x="0px" y="0px"
	 viewBox="0 0 220 144" style="enable-background:new 0 0 220 144;" xml:space="preserve">
<style type="text/css">
	.st0{fill:#FFFFFF;}
	.st1{display:none;}
	.st2{display:inline;fill:#606161;}
</style>
<g id="front">
	<g>
		<path class="st0" d="M48,95.9v-9.6h2c1.4,0,2.5,0.1,3.1,0.3c0.9,0.3,1.7,0.9,2.2,1.7c0.5,0.8,0.8,1.8,0.8,2.9c0,1-0.2,1.8-0.6,2.5
			s-1,1.3-1.6,1.6s-1.6,0.5-2.8,0.5H48z M48.9,95H50c1.3,0,2.3-0.1,2.8-0.2c0.7-0.2,1.3-0.7,1.7-1.3c0.4-0.6,0.6-1.4,0.6-2.2
			c0-0.9-0.2-1.7-0.7-2.4c-0.5-0.7-1.1-1.1-1.9-1.4c-0.6-0.2-1.6-0.3-3-0.3h-0.7V95z"/>
		<path class="st0" d="M59.1,85.9c0.2,0,0.4,0.1,0.5,0.2c0.1,0.1,0.2,0.3,0.2,0.5c0,0.2-0.1,0.4-0.2,0.5c-0.1,0.1-0.3,0.2-0.5,0.2
			c-0.2,0-0.4-0.1-0.5-0.2c-0.1-0.1-0.2-0.3-0.2-0.5c0-0.2,0.1-0.4,0.2-0.5C58.8,86,58.9,85.9,59.1,85.9z M58.7,88.8h0.9v7.1h-0.9
			V88.8z"/>
		<path class="st0" d="M68.7,88.8h0.9v5.7c0,1-0.1,1.7-0.3,2.2c-0.2,0.7-0.7,1.2-1.3,1.5c-0.6,0.4-1.3,0.5-2.1,0.5
			c-0.6,0-1.2-0.1-1.6-0.3c-0.5-0.2-0.9-0.4-1.2-0.7c-0.3-0.3-0.6-0.7-0.8-1.3h1c0.3,0.5,0.6,0.8,1.1,1c0.4,0.2,1,0.3,1.6,0.3
			c0.6,0,1.2-0.1,1.6-0.3c0.4-0.2,0.7-0.5,0.9-0.9c0.2-0.4,0.3-0.9,0.3-1.7v-0.4c-0.3,0.4-0.8,0.8-1.3,1c-0.5,0.2-1,0.4-1.6,0.4
			c-0.7,0-1.3-0.2-1.9-0.5s-1-0.8-1.3-1.3c-0.3-0.6-0.5-1.2-0.5-1.8s0.2-1.3,0.5-1.8c0.3-0.6,0.8-1,1.4-1.4c0.6-0.3,1.2-0.5,1.8-0.5
			c0.5,0,1,0.1,1.5,0.3c0.5,0.2,0.9,0.6,1.3,1.1V88.8z M66,89.5c-0.5,0-1,0.1-1.4,0.4c-0.4,0.3-0.8,0.6-1,1
			c-0.3,0.4-0.4,0.9-0.4,1.4c0,0.8,0.3,1.4,0.8,1.9c0.5,0.5,1.2,0.8,2,0.8c0.8,0,1.5-0.3,2-0.8c0.5-0.5,0.8-1.2,0.8-2
			c0-0.5-0.1-1-0.4-1.4c-0.2-0.4-0.6-0.8-1-1C66.9,89.6,66.5,89.5,66,89.5z"/>
		<path class="st0" d="M72.9,85.9c0.2,0,0.4,0.1,0.5,0.2c0.1,0.1,0.2,0.3,0.2,0.5c0,0.2-0.1,0.4-0.2,0.5c-0.1,0.1-0.3,0.2-0.5,0.2
			c-0.2,0-0.4-0.1-0.5-0.2c-0.1-0.1-0.2-0.3-0.2-0.5c0-0.2,0.1-0.4,0.2-0.5C72.5,86,72.7,85.9,72.9,85.9z M72.4,88.8h0.9v7.1h-0.9
			V88.8z"/>
		<path class="st0" d="M77.1,86.2H78v2.6h1.5v0.8H78v6.3h-0.9v-6.3h-1.3v-0.8h1.3V86.2z"/>
		<path class="st0" d="M88.9,88.8v7.1H88v-1.2c-0.4,0.5-0.8,0.8-1.3,1.1c-0.5,0.2-1,0.4-1.6,0.4c-1,0-1.9-0.4-2.6-1.1
			c-0.7-0.7-1.1-1.6-1.1-2.7c0-1,0.4-1.9,1.1-2.6c0.7-0.7,1.6-1.1,2.6-1.1c0.6,0,1.1,0.1,1.6,0.4c0.5,0.2,0.9,0.6,1.2,1.1v-1.3H88.9
			z M85.2,89.5c-0.5,0-1,0.1-1.4,0.4c-0.4,0.3-0.8,0.6-1,1.1c-0.3,0.5-0.4,0.9-0.4,1.4c0,0.5,0.1,1,0.4,1.4s0.6,0.8,1,1.1
			c0.4,0.3,0.9,0.4,1.4,0.4c0.5,0,1-0.1,1.4-0.4c0.4-0.3,0.8-0.6,1-1c0.2-0.4,0.4-0.9,0.4-1.5c0-0.8-0.3-1.5-0.8-2.1
			C86.7,89.8,86,89.5,85.2,89.5z"/>
		<path class="st0" d="M91.8,86.1h0.9v9.9h-0.9V86.1z"/>
		<path class="st0" d="M100.4,86.3h1v9.6h-1V86.3z"/>
		<path class="st0" d="M104.3,86.1h0.9v9.9h-0.9V86.1z"/>
		<path class="st0" d="M108,86.1h0.9v9.9H108V86.1z"/>
		<path class="st0" d="M111.7,88.8h0.9v3.3c0,0.8,0,1.4,0.1,1.7c0.1,0.4,0.4,0.8,0.8,1c0.4,0.3,0.8,0.4,1.3,0.4s0.9-0.1,1.3-0.4
			c0.4-0.2,0.6-0.6,0.7-1c0.1-0.3,0.1-0.9,0.1-1.8v-3.3h0.9v3.5c0,1-0.1,1.7-0.3,2.2c-0.2,0.5-0.6,0.9-1,1.2s-1,0.4-1.7,0.4
			c-0.7,0-1.3-0.1-1.7-0.4c-0.5-0.3-0.8-0.7-1-1.2c-0.2-0.5-0.3-1.3-0.3-2.3V88.8z"/>
		<path class="st0" d="M124.6,89.6l-0.6,0.6c-0.5-0.5-1-0.7-1.4-0.7c-0.3,0-0.6,0.1-0.8,0.3c-0.2,0.2-0.3,0.4-0.3,0.7
			c0,0.2,0.1,0.5,0.3,0.7c0.2,0.2,0.5,0.5,1.1,0.8c0.7,0.4,1.1,0.7,1.4,1c0.2,0.3,0.4,0.7,0.4,1.1c0,0.6-0.2,1.1-0.6,1.5
			c-0.4,0.4-0.9,0.6-1.5,0.6c-0.4,0-0.8-0.1-1.2-0.3c-0.4-0.2-0.7-0.4-0.9-0.7l0.6-0.7c0.5,0.5,1,0.8,1.5,0.8c0.4,0,0.7-0.1,0.9-0.4
			c0.3-0.2,0.4-0.5,0.4-0.8c0-0.3-0.1-0.5-0.3-0.7c-0.2-0.2-0.6-0.5-1.2-0.8c-0.6-0.3-1.1-0.7-1.3-1c-0.2-0.3-0.3-0.7-0.3-1.1
			c0-0.5,0.2-1,0.6-1.3c0.4-0.4,0.8-0.5,1.4-0.5C123.3,88.6,123.9,89,124.6,89.6z"/>
		<path class="st0" d="M128,86.2h0.9v2.6h1.5v0.8h-1.5v6.3H128v-6.3h-1.3v-0.8h1.3V86.2z"/>
		<path class="st0" d="M132.4,88.8h0.9v1c0.3-0.4,0.6-0.7,0.9-0.9c0.3-0.2,0.6-0.3,1-0.3c0.3,0,0.5,0.1,0.8,0.2l-0.5,0.8
			c-0.2-0.1-0.4-0.1-0.5-0.1c-0.3,0-0.6,0.1-0.9,0.4c-0.3,0.3-0.5,0.6-0.6,1.2c-0.1,0.4-0.2,1.2-0.2,2.5v2.4h-0.9V88.8z"/>
		<path class="st0" d="M144.9,88.8v7.1H144v-1.2c-0.4,0.5-0.8,0.8-1.3,1.1c-0.5,0.2-1,0.4-1.6,0.4c-1,0-1.9-0.4-2.6-1.1
			c-0.7-0.7-1.1-1.6-1.1-2.7c0-1,0.4-1.9,1.1-2.6c0.7-0.7,1.6-1.1,2.6-1.1c0.6,0,1.1,0.1,1.6,0.4c0.5,0.2,0.9,0.6,1.2,1.1v-1.3
			H144.9z M141.2,89.5c-0.5,0-1,0.1-1.4,0.4c-0.4,0.3-0.8,0.6-1,1.1c-0.3,0.5-0.4,0.9-0.4,1.4c0,0.5,0.1,1,0.4,1.4s0.6,0.8,1,1.1
			c0.4,0.3,0.9,0.4,1.4,0.4c0.5,0,1-0.1,1.4-0.4c0.4-0.3,0.8-0.6,1-1c0.2-0.4,0.4-0.9,0.4-1.5c0-0.8-0.3-1.5-0.8-2.1
			C142.7,89.8,142,89.5,141.2,89.5z"/>
		<path class="st0" d="M148.8,86.2h0.9v2.6h1.5v0.8h-1.5v6.3h-0.9v-6.3h-1.3v-0.8h1.3V86.2z"/>
		<path class="st0" d="M153.9,85.9c0.2,0,0.4,0.1,0.5,0.2c0.1,0.1,0.2,0.3,0.2,0.5c0,0.2-0.1,0.4-0.2,0.5c-0.1,0.1-0.3,0.2-0.5,0.2
			c-0.2,0-0.4-0.1-0.5-0.2c-0.1-0.1-0.2-0.3-0.2-0.5c0-0.2,0.1-0.4,0.2-0.5C153.5,86,153.7,85.9,153.9,85.9z M153.4,88.8h0.9v7.1
			h-0.9V88.8z"/>
		<path class="st0" d="M160.6,88.6c1.1,0,2,0.4,2.7,1.2c0.7,0.7,1,1.6,1,2.6c0,1-0.3,1.9-1,2.6c-0.7,0.7-1.6,1.1-2.7,1.1
			c-1.1,0-2-0.4-2.7-1.1s-1-1.6-1-2.6c0-1,0.3-1.8,1-2.6C158.6,89,159.5,88.6,160.6,88.6z M160.6,89.5c-0.8,0-1.4,0.3-2,0.8
			c-0.5,0.6-0.8,1.2-0.8,2c0,0.5,0.1,1,0.4,1.4c0.2,0.4,0.6,0.8,1,1c0.4,0.2,0.9,0.4,1.4,0.4c0.5,0,1-0.1,1.4-0.4
			c0.4-0.2,0.8-0.6,1-1c0.2-0.4,0.4-0.9,0.4-1.4c0-0.8-0.3-1.5-0.8-2C162,89.8,161.4,89.5,160.6,89.5z"/>
		<path class="st0" d="M167,88.8h0.9v1.3c0.4-0.5,0.8-0.9,1.2-1.1c0.4-0.2,0.9-0.4,1.5-0.4c0.5,0,1,0.1,1.4,0.4
			c0.4,0.3,0.7,0.6,0.9,1.1c0.2,0.5,0.3,1.2,0.3,2.1v3.7h-0.9v-3.4c0-0.8,0-1.4-0.1-1.6c-0.1-0.5-0.3-0.8-0.6-1.1
			c-0.3-0.2-0.7-0.4-1.2-0.4c-0.6,0-1.1,0.2-1.5,0.6c-0.4,0.4-0.7,0.8-0.9,1.4c-0.1,0.4-0.1,1-0.1,1.9v2.6H167V88.8z"/>
	</g>
	<g>
		<path class="st0" d="M41.2,72.1c-5-2.6-7.7-8.8-6.5-14.3c0.5-2.5,1.8-5,3.9-6.4c2.3-1.6,5.6-1.7,7.9-0.2c1.4,0.9,2.5,2.4,3.2,3.9
			c0.9,1.7,1.5,3.5,1.8,5.3c0.2,1.2,0,2.4,0,3.6c0.8-0.4,1.5-1.1,2.1-1.9c1-1.4,1.8-2.9,2-4.6c0.4-1.8,0.2-3.6,0.3-5.4
			c-0.9,0-1.9-0.1-2.8-0.4c-2.7-0.9-5-3-7.9-3.5c-2.6-0.5-5.3-0.1-7.7,1.1c-4.8,2.5-7.7,7.8-8,13.1V65c0.3,3.8,1.9,7.6,4.9,10.1
			c2.7,2.3,6.2,3.4,9.7,3.4c3.2,0.1,6.3-0.8,8.9-2.6c2.1-1.5,3.9-3.6,4.5-6.1c-2.4,1.6-4.7,3.4-7.7,3.8
			C47.1,73.9,43.9,73.6,41.2,72.1z"/>
		<path class="st0" d="M91.6,75.3c-0.8-0.6-1.4-1.6-1.4-2.6c0-4.6,0-9.2,0-13.8c0,0,0.1-0.1,0.2-0.2c0.9-0.1,1.7,0,2.6,0
			c0-0.6,0-1.2,0-1.8c-1,0-2,0-3.1,0c0.5-1.6,0.4-3.3-0.2-4.9c-0.9,1.2-1.9,2.4-3.1,3.4c-1.4,1.3-3.1,2.2-4.4,3.6c0.9,0,1.8,0,2.8,0
			c0,4.9,0,9.8,0,14.7c0.1,1.3,0.1,2.8,1.2,3.7c1.3,0.9,3,0.9,4.5,0.6c1.5-0.3,2.6-3,2.6-2.7C92.8,75.4,92.2,75.5,91.6,75.3z"/>
		<path class="st0" d="M168,56c-2.4,0.7-4.9,1-7.1,2.1c0.5,0.3,1.1,0.6,1.5,1.1c0.3,0.4,0.3,1,0.3,1.5c0,3.9,0,7.7,0,11.6
			c0,1.2-1.3,1.7-2.1,2.1c-0.8,0.5-1.9,0.1-2.4-0.7c-0.7-1-0.9-2.3-0.9-3.6c0-4.6,0-9.2,0-13.9c-1,0.2-1.9,0.4-2.9,0.6
			c-1.5,0.3-3.1,0.4-4.5,1.1c0.8,0.7,2,1.4,2.1,2.6c0,3.6,0,7.3,0,10.9c0,1.9,0.4,4,1.8,5.4c1.3,1.3,3.3,1.6,5,1.1
			c1.4-0.4,2.7-1.4,4.1-1.8c0.1,0.5,0.1,0.9,0.3,1.4c2.4,0,4.9,0,7.3,0c-1.2-1.3-2.4-2.8-2.4-4.6C168,67.2,168,61.6,168,56z"/>
		<path class="st0" d="M187.6,65.8c-3-1.6-6.4-2.2-9.5-3.6c-1.1-0.4-1.6-1.8-1.1-2.8c0.4-0.8,1.3-1.2,2.2-1.3c1.3-0.1,2.7,0,3.7,0.9
			c0.9,0.8,1.8,1.6,3.1,1.8c1.1,0.1,2.3,0.2,3.4,0c-0.9-1.4-1.9-2.8-2.5-4.4c-0.8,0.4-1.7,0.8-2.7,0.7c-1.9-0.2-3.7-1-5.6-0.7
			c-2.1,0.5-4.1,1.8-5.1,3.8c-1.1,2-0.7,4.8,1.2,6.2c2.8,2.1,6.4,2.7,9.5,4.1c1.1,0.5,2.3,1,2.8,2.2c0.2,0.9,0.3,1.9-0.4,2.7
			c-0.6,0.7-1.5,1.1-2.4,1.1c-1.1,0-2.2,0.1-3.2-0.4c-1.3-0.6-2.1-1.9-3.3-2.5c-1.1-0.7-2.5-0.7-3.8-0.8c-0.7-0.1-1.4,0.4-2,0.7
			c1.3,1.3,2.3,2.8,3.1,4.4c0.9-0.3,1.8-0.7,2.7-0.7c1.4,0,2.7,0.5,4.1,0.7c2.4,0.3,5-0.4,6.8-2c1.2-1,2.1-2.5,2.4-4v-1.8
			C190.8,68,189.3,66.6,187.6,65.8z"/>
		<path class="st0" d="M146.1,74.7c0-3.9,0-7.7,0-11.6c-0.1-1.5-0.2-3.1-1.2-4.2c-0.9-1.2-2.4-1.6-3.8-1.5c-1.1,0-2.3-0.1-3.3,0.6
			c-0.9,0.6-1.7,1.4-2.6,2.2c-0.7-0.6-1.2-1.4-2-2c-1.1-0.8-2.6-0.9-4-0.7c-1.6,0.3-3,1.1-4.5,1.6c0-0.7,0-1.4,0-2
			c-1.8,0.5-3.7,0.8-5.5,1.2c-0.5,0.1-0.9,0.3-1.4,0.5c0.8,1.2,1.6,2.6,1.6,4.1c0,4.2,0,8.5,0,12.7c0.1,1.1-0.9,1.9-1.5,2.7
			c2.6,0,5.2,0,7.8,0c-0.5-0.8-1-1.5-1-2.5c0-3.9,0-7.9,0-11.8c-0.2-2.1,2.6-3.7,4.3-2.5c0.6,0.4,0.8,1.2,0.8,1.9c0,4,0,8,0,12.1
			c0.1,1.2-0.9,2.1-1.7,2.9c2.9,0,5.8,0,8.7,0c-0.6-0.8-1-1.7-1.4-2.7c-0.3-3.1-0.2-6.2-0.2-9.3c0-1.4,0.2-2.9,0.9-4.2
			c0.8-1.4,3.2-1.5,4-0.1c0.8,1.5,0.3,3.3,0.4,4.9c0.1,2.2,0.2,4.5,0.2,6.7c-0.1,1.5-0.4,2.9-1.1,4.3c2.8,0,5.6,0,8.4,0
			C147,76.9,146.1,75.9,146.1,74.7z"/>
		<path class="st0" d="M76.9,63c-0.4-2.2-1.4-4.7-3.7-5.6c-2.1-0.7-4.3-0.7-6.4-0.3c-2.4,0.5-3.9,2.6-5.1,4.5
			c-0.4,0.6-0.3,1.3-0.2,2c1.4-1.7,3.3-3.2,5.5-3.2c1.4,0,2.5,0.8,3.4,1.8c-1.6,0.9-3.4,1.6-4.9,2.6c-2.2,1.3-4.2,3.3-4.8,5.9
			c-0.4,2-0.3,4.3,1.2,5.9c1.4,1.5,3.5,1.8,5.4,1.9c1.8,0,3.6-0.1,5.1-1.1c0.3,0.3,0.7,0.5,1.1,0.6c2.2,0.6,4.6,0.3,6.6-0.5
			c-1.5-1.6-2.1-3.8-2.4-6C77.5,68.6,77.3,65.8,76.9,63z M70.1,76.3c-1.7-0.4-3.1-1.8-3.5-3.5c-0.3-2.1-0.1-4.4,1.3-6
			c0.9-1.1,2-2.1,3.4-2.4c0.7,3.5,0.9,7.1,1.2,10.6C71.8,75.5,71,76,70.1,76.3z"/>
		<path class="st0" d="M112.4,62.9c-0.4-2.1-1.4-4.5-3.6-5.4c-2.1-0.8-4.5-0.7-6.7-0.3c-2.3,0.5-3.7,2.6-4.9,4.4
			c-0.4,0.6-0.2,1.3-0.2,2c1.4-1.7,3.3-3.2,5.5-3.2c1.4,0,2.5,0.8,3.4,1.8c-2.4,1.1-4.8,2.2-6.8,3.9c-1.4,1.2-2.6,2.9-3,4.8
			c-0.3,1.6-0.3,3.5,0.7,4.9c1.1,1.7,3.1,2.4,4.9,2.6c2.1,0.2,4.4,0.2,6.2-1c0.3,0.3,0.7,0.5,1.1,0.6c2.2,0.6,4.6,0.3,6.6-0.6
			c-1.7-1.8-2.2-4.4-2.4-6.7C112.9,68,112.8,65.4,112.4,62.9z M105,76c-1.7-0.6-3-2.3-3-4.2c-0.1-1.5,0.1-3,0.8-4.3
			c0.9-1.5,2.3-2.8,4-3.2c0.8,3.5,0.9,7.1,1.3,10.6C107.2,75.6,106.1,76.4,105,76z"/>
	</g>
	<path class="st0" d="M171.3,109.4c0.6,0.8,1.3,1.6,2.1,2.3c3.3,2.8,7.6,3.7,11.6,2.7c-5.3,4.8-11.9,8.3-19.2,9.9
		c3-2.7,4.7-6.7,4.4-11.2c-0.1-1.3-0.4-2.6-0.9-3.7h-3.3c0.3,1,0.4,2.1,0.2,3.3c-0.4,4.5-4.1,8.2-8.6,8.6c-2.6,0.3-4.9-0.5-6.8-1.9
		c0.7-1.2,1.3-2.4,1.8-3.7c1.1,0.7,2.5,1.2,4,1.2c4.1,0,7.4-3.3,7.4-7.4c0-0.1,0-0.1,0-0.2h-2.2c-0.5,2.3-2.6,4-5.1,4
		c-1,0-2-0.3-2.8-0.8c0.4-1.1,0.7-2.1,1-3.2h-3.3c-0.6,2.2-1.5,4.3-2.4,6.3c-0.1-2.2-0.7-4.4-1.9-6.3h-5.1c2.2,3.3,2,7.8-0.5,11
		c-3.7,4.6-10.7,4.6-14.4,0c-1.1-1.3-1.7-2.8-2-4.4c0.4-0.2,0.7-0.4,1.1-0.6c0.3,1,0.9,1.9,1.7,2.7c2.8,2.8,7.2,2.8,10,0
		c2.4-2.4,2.7-6,1-8.7h-2.7c1.3,1.9,1.1,4.6-0.6,6.3c-2,2-5.1,2-7.1,0c-0.3-0.3-0.6-0.7-0.9-1.1c2.2-1.5,4.2-3.2,5.9-5.2h-4.8
		c-0.5,0.5-1,0.9-1.5,1.3l0,0c-0.6,0.4-1.1,0.8-1.7,1.2l0,0v0c-0.7,0.4-1.3,0.8-2.1,1.2l0,0c-0.9,0.5-1.8,0.9-2.8,1.3
		c-0.1,0-0.1,0-0.2,0.1c-0.3,0.1-0.6,0.2-0.9,0.3c-0.1,0-0.1,0-0.2,0.1c-2.7,0.9-5.6,1.4-8.6,1.4c-1.5,0-3-0.1-4.5-0.4h0l0,0
		c-1.1-0.2-2.1-0.4-3.1-0.7c0,0,0,0,0,0c-0.3-0.1-0.6-0.2-0.9-0.3c0,0-0.1,0-0.1,0c-1.3-0.4-2.6-1-3.8-1.6l0,0
		c-0.7-0.4-1.3-0.7-2-1.2l0,0c-0.6-0.4-1.2-0.8-1.8-1.2l0,0c-0.4-0.3-0.7-0.6-1.1-0.8c0,0,0,0-0.1-0.1c-0.2-0.2-0.4-0.4-0.6-0.6
		h-4.6c1.7,2,3.7,3.7,5.9,5.1c-0.2,0.4-0.5,0.8-0.8,1.1c-2,2-5.2,2-7.1,0c-1.7-1.7-1.9-4.3-0.7-6.3h-2.8c-1.6,2.7-1.3,6.3,1.1,8.6
		c2.8,2.8,7.2,2.8,10,0c0.8-0.8,1.3-1.7,1.7-2.7c0.4,0.2,0.7,0.4,1.1,0.6c-0.4,2.1-1.4,4.2-3.3,5.7c-3.4,2.8-8.4,2.8-11.8,0
		c-3.8-3.1-4.4-8.4-1.9-12.3h-5.2c-1.2,2-1.8,4.2-1.9,6.4c-1-2.1-1.8-4.2-2.5-6.4h-3.3c0.2,0.9,0.5,1.8,0.8,2.6
		c-0.9,0.9-2.2,1.4-3.6,1.4c-2.5,0-4.5-1.7-5.1-4h-2.3c0,0.1,0,0.1,0,0.2c0,4.1,3.3,7.4,7.4,7.4c1.8,0,3.5-0.7,4.8-1.8
		c0.5,1.3,1.1,2.5,1.8,3.7c-1.5,1.4-3.4,2.3-5.5,2.5c-6.1,0.6-11.2-4.5-10.6-10.6c0-0.4,0.1-0.9,0.2-1.3h-3.3c-0.7,1.8-1,3.8-0.9,6
		c0.3,3.5,2,6.7,4.5,9c-7.3-1.6-14-5.1-19.4-10c4.7,1.2,9.9-0.2,13.3-4.2c0.2-0.3,0.4-0.5,0.6-0.8H26.9
		c8.3,11.6,21.8,19.1,37.1,19.1c4.2,0,8.2-0.6,12.1-1.6c8.4,9.9,20.8,16.1,34.8,16.1c13.8,0,26.2-6.2,34.6-15.9
		c3.6,0.9,7.3,1.4,11.1,1.4c15.3,0,28.9-7.6,37.1-19.1H171.3z M73.3,124.3c0.2-0.1,0.3-0.3,0.5-0.4c0.1,0.1,0.1,0.2,0.2,0.3
		C73.7,124.1,73.5,124.2,73.3,124.3z M107,119.3c1.3,0.2,2.7,0.3,4,0.3c1.3,0,2.7-0.1,3.9-0.3c0.8,0.9,1.2,2.1,1.2,3.4
		c0,2.9-2.3,5.2-5.2,5.2c-2.9,0-5.2-2.3-5.2-5.2C105.8,121.4,106.2,120.2,107,119.3z M82.5,128.8c4.7,1.2,9.9-0.2,13.3-4.2
		c1.9-2.2,2.9-4.9,3.1-7.6c1.1,0.5,2.2,0.9,3.4,1.3c-3.2,2.7-5.2,6.9-4.8,11.6c0.3,3.5,2,6.7,4.5,9
		C94.5,137.2,87.9,133.7,82.5,128.8z M112,135.8c-6.1,0.6-11.2-4.5-10.6-10.6c0.2-2.5,1.5-4.7,3.3-6.3c0.3,0.1,0.6,0.1,0.9,0.2
		c-1.2,1.3-2,3.1-2,5c0,4.1,3.3,7.4,7.4,7.4c4.1,0,7.4-3.3,7.4-7.4c0-1.9-0.7-3.7-2-5c0.3-0.1,0.7-0.1,1-0.2c2.2,2,3.6,5,3.2,8.3
		C120.2,131.7,116.5,135.3,112,135.8z M120.1,138.8c3-2.7,4.7-6.7,4.4-11.2c-0.3-3.7-2.1-7-4.8-9.3c1.2-0.4,2.3-0.8,3.4-1.3
		c0.2,3.4,1.7,6.7,4.6,9.2c3.3,2.8,7.6,3.7,11.6,2.7C134,133.7,127.4,137.1,120.1,138.8z"/>
	<path class="st0" d="M49.4,35.6c-0.6-0.8-1.3-1.6-2.1-2.3c-3.3-2.8-7.6-3.7-11.6-2.7c5.3-4.8,11.9-8.3,19.2-9.9
		c-3,2.7-4.7,6.7-4.4,11.2c0.1,1.3,0.4,2.6,0.9,3.7h3.3c-0.3-1-0.4-2.1-0.2-3.3c0.4-4.5,4.1-8.2,8.6-8.6c2.6-0.3,4.9,0.5,6.8,1.9
		c-0.7,1.2-1.3,2.4-1.8,3.7c-1.1-0.7-2.5-1.2-4-1.2c-4.1,0-7.4,3.3-7.4,7.4c0,0.1,0,0.1,0,0.2h2.2c0.5-2.3,2.6-4,5.1-4
		c1,0,2,0.3,2.8,0.8c-0.4,1.1-0.7,2.1-1,3.2h3.3c0.6-2.2,1.5-4.3,2.4-6.3c0.1,2.2,0.7,4.4,1.9,6.3h5.1c-2.2-3.3-2-7.8,0.5-11
		c3.7-4.6,10.7-4.6,14.4,0c1.1,1.3,1.7,2.8,2,4.4c-0.4,0.2-0.7,0.4-1.1,0.6c-0.3-1-0.9-1.9-1.7-2.7c-2.8-2.8-7.2-2.8-10,0
		c-2.4,2.4-2.7,6-1,8.7h2.7c-1.3-1.9-1.1-4.6,0.6-6.3c2-2,5.1-2,7.1,0c0.3,0.3,0.6,0.7,0.9,1.1c-2.2,1.5-4.2,3.2-5.9,5.2h4.8
		c0.5-0.5,1-0.9,1.5-1.3l0,0c0.6-0.4,1.1-0.8,1.7-1.2l0,0v0c0.7-0.4,1.3-0.8,2.1-1.2l0,0c0.9-0.5,1.8-0.9,2.8-1.3
		c0.1,0,0.1,0,0.2-0.1c0.3-0.1,0.6-0.2,0.9-0.3c0.1,0,0.1,0,0.2-0.1c2.7-0.9,5.6-1.4,8.6-1.4c1.5,0,3,0.1,4.5,0.4h0l0,0
		c1.1,0.2,2.1,0.4,3.1,0.7c0,0,0,0,0,0c0.3,0.1,0.6,0.2,0.9,0.3c0,0,0.1,0,0.1,0c1.3,0.4,2.6,1,3.8,1.6l0,0c0.7,0.4,1.3,0.7,2,1.2
		l0,0c0.6,0.4,1.2,0.8,1.8,1.2l0,0c0.4,0.3,0.7,0.6,1.1,0.8c0,0,0,0,0.1,0.1c0.2,0.2,0.4,0.4,0.6,0.6h4.6c-1.7-2-3.7-3.7-5.9-5.1
		c0.2-0.4,0.5-0.8,0.8-1.1c2-2,5.2-2,7.1,0c1.7,1.7,1.9,4.3,0.7,6.3h2.8c1.6-2.7,1.3-6.3-1.1-8.6c-2.8-2.8-7.2-2.8-10,0
		c-0.8,0.8-1.3,1.7-1.7,2.7c-0.4-0.2-0.7-0.4-1.1-0.6c0.4-2.1,1.4-4.2,3.3-5.7c3.4-2.8,8.4-2.8,11.8,0c3.8,3.1,4.4,8.4,1.9,12.3h5.2
		c1.2-2,1.8-4.2,1.9-6.4c1,2.1,1.8,4.2,2.5,6.4h3.3c-0.2-0.9-0.5-1.8-0.8-2.6c0.9-0.9,2.2-1.4,3.6-1.4c2.5,0,4.5,1.7,5.1,4h2.3
		c0-0.1,0-0.1,0-0.2c0-4.1-3.3-7.4-7.4-7.4c-1.8,0-3.5,0.7-4.8,1.8c-0.5-1.3-1.1-2.5-1.8-3.7c1.5-1.4,3.4-2.3,5.5-2.5
		c6.1-0.6,11.2,4.5,10.6,10.6c0,0.4-0.1,0.9-0.2,1.3h3.3c0.7-1.8,1-3.8,0.9-6c-0.3-3.5-2-6.7-4.5-9c7.3,1.6,14,5.1,19.4,10
		c-4.7-1.2-9.9,0.2-13.3,4.2c-0.2,0.3-0.4,0.5-0.6,0.8h22.6c-8.3-11.6-21.8-19.1-37.1-19.1c-4.2,0-8.2,0.6-12.1,1.6
		C136.2,8.3,123.8,2,109.8,2C96,2,83.6,8.2,75.2,17.9c-3.6-0.9-7.3-1.4-11.1-1.4c-15.3,0-28.9,7.6-37.1,19.1H49.4z M147.4,20.7
		c-0.2,0.1-0.3,0.3-0.5,0.4c-0.1-0.1-0.1-0.2-0.2-0.3C147,20.9,147.2,20.8,147.4,20.7z M113.7,25.7c-1.3-0.2-2.7-0.3-4-0.3
		c-1.3,0-2.7,0.1-3.9,0.3c-0.8-0.9-1.2-2.1-1.2-3.4c0-2.9,2.3-5.2,5.2-5.2c2.9,0,5.2,2.3,5.2,5.2C115,23.6,114.5,24.8,113.7,25.7z
		 M138.3,16.2c-4.7-1.2-9.9,0.2-13.3,4.2c-1.9,2.2-2.9,4.9-3.1,7.6c-1.1-0.5-2.2-0.9-3.4-1.3c3.2-2.7,5.2-6.9,4.8-11.6
		c-0.3-3.5-2-6.7-4.5-9C126.2,7.8,132.9,11.3,138.3,16.2z M108.8,9.2c6.1-0.6,11.2,4.5,10.6,10.6c-0.2,2.5-1.5,4.7-3.3,6.3
		c-0.3-0.1-0.6-0.1-0.9-0.2c1.2-1.3,2-3.1,2-5c0-4.1-3.3-7.4-7.4-7.4c-4.1,0-7.4,3.3-7.4,7.4c0,1.9,0.7,3.7,2,5
		c-0.3,0.1-0.7,0.1-1,0.2c-2.2-2-3.6-5-3.2-8.3C100.6,13.3,104.2,9.7,108.8,9.2z M100.6,6.2c-3,2.7-4.7,6.7-4.4,11.2
		c0.3,3.7,2.1,7,4.8,9.3c-1.2,0.4-2.3,0.8-3.4,1.3c-0.2-3.4-1.7-6.7-4.6-9.2c-3.3-2.8-7.6-3.7-11.6-2.7
		C86.8,11.3,93.3,7.9,100.6,6.2z"/>
	<path class="st0" d="M209.2,104.9H11.7c0.6,1.1,1.2,2.1,1.8,3.1h194C208.1,107,208.7,106,209.2,104.9z"/>
	<path class="st0" d="M205.5,37.2H15.4c-0.7,1-1.3,2.1-2,3.1h194C206.9,39.3,206.2,38.3,205.5,37.2z"/>
</g>
<g id="Layer_2" class="st1">
	<path class="st2" d="M13.4,101.8c-4-8.6-6.2-17.9-6.2-27.6c0-11,2.9-21.6,8.1-31.2h-3.4c-5.2,9.7-8.1,20.2-8.1,31.2
		c0,9.7,2.2,19,6.2,27.6H13.4z"/>
	<path class="st2" d="M207.5,101.8h3.4c4-8.6,6.2-17.9,6.2-27.6c0-11-2.9-21.6-8.1-31.2h-3.4c5.2,9.7,8.1,20.2,8.1,31.2
		C213.8,83.9,211.6,93.2,207.5,101.8z"/>
	<path class="st2" d="M199.9,101.8h2.7c4-8.6,6.2-17.9,6.2-27.6c0-11-2.9-21.6-8.1-31.2H198c5.2,9.7,8.1,20.2,8.1,31.2
		C206.1,83.9,203.9,93.2,199.9,101.8z"/>
	<path class="st2" d="M21,101.8c-4-8.6-6.2-17.9-6.2-27.6c0-11,2.9-21.6,8.1-31.2h-2.7c-5.2,9.7-8.1,20.2-8.1,31.2
		c0,9.7,2.2,19,6.2,27.6H21z"/>
</g>
</svg>
